<svg width="25" height="24" viewBox="0 0 25 24" fill="none" xmlns="http://www.w3.org/2000/svg">
<path fill-rule="evenodd" clip-rule="evenodd" d="M12.5 15.518L16.0058 17.6339C16.1573 17.7253 16.3441 17.5895 16.3039 17.4173L15.5107 14.0169C15.4263 13.6554 15.5492 13.2769 15.8297 13.0339L18.4725 10.7445C18.6062 10.6286 18.5347 10.409 18.3584 10.394L14.8828 10.0991C14.5132 10.0678 14.1913 9.83445 14.0466 9.49295L12.5 5.8439L10.9534 9.49295C10.8087 9.83445 10.4868 10.0678 10.1172 10.0991L6.64158 10.394C6.46529 10.409 6.39381 10.6286 6.52753 10.7445L9.17026 13.0339C9.45082 13.2769 9.57367 13.6554 9.48934 14.0169L8.69608 17.4173C8.65589 17.5895 8.84273 17.7253 8.9942 17.6339L12.5 15.518ZM8.349 19.7754C7.59168 20.2325 6.65745 19.5535 6.85841 18.692L7.82287 14.5578C7.90721 14.1963 7.78436 13.8178 7.50379 13.5748L4.29139 10.7919C3.6228 10.2127 3.9802 9.11442 4.86163 9.03964L9.08914 8.68098C9.45871 8.64962 9.78058 8.41629 9.92532 8.07479L11.5793 4.17237C11.9239 3.35934 13.0761 3.35934 13.4207 4.17237L15.0747 8.07479C15.2194 8.41629 15.5413 8.64962 15.9109 8.68098L20.1384 9.03964C21.0198 9.11442 21.3772 10.2127 20.7086 10.7919L17.4962 13.5748C17.2156 13.8178 17.0928 14.1963 17.1771 14.5578L18.1416 18.692C18.3425 19.5535 17.4083 20.2325 16.651 19.7754L13.0167 17.5819C12.6989 17.3901 12.3011 17.3901 11.9833 17.5819L8.349 19.7754Z" fill="#424242"/>
</svg>
